<?xml version="1.0" standalone="no"?>
<!DOCTYPE svg PUBLIC "-//W3C//DTD SVG 20010904//EN"
 "http://www.w3.org/TR/2001/REC-SVG-20010904/DTD/svg10.dtd">
<svg version="1.0" xmlns="http://www.w3.org/2000/svg"
 width="400.000000pt" height="400.000000pt" viewBox="0 0 400.000000 400.000000"
 preserveAspectRatio="xMidYMid meet">
<metadata>
Created by potrace 1.14, written by Peter Selinger 2001-2017
</metadata>
<g transform="translate(0.000000,400.000000) scale(0.100000,-0.100000)"
fill="#000000" stroke="none">
<path d="M0 2000 l0 -2000 2000 0 2000 0 0 2000 0 2000 -2000 0 -2000 0 0
-2000z m1579 1567 l-4 -84 48 -56 c26 -30 47 -58 47 -60 0 -3 -25 -11 -56 -17
-41 -9 -57 -17 -64 -33 -4 -12 -20 -49 -35 -82 l-27 -60 -34 73 -33 72 -66 0
-67 0 34 41 c18 22 37 46 41 52 6 8 -6 39 -31 82 -22 39 -39 71 -38 72 1 1 29
-4 61 -12 96 -23 105 -21 165 40 30 30 56 55 58 55 2 0 2 -38 1 -83z m324
-1507 l404 -895 41 2 c49 2 60 -23 15 -33 -174 -39 -276 -72 -270 -88 2 -6 15
-41 28 -78 13 -38 27 -68 30 -68 3 0 11 12 18 26 l12 27 19 -21 c11 -11 40
-72 66 -135 l47 -115 -13 -77 c-12 -69 -16 -79 -44 -96 l-31 -19 80 5 c155 11
807 36 811 32 6 -6 -142 -14 -566 -32 -201 -9 -377 -20 -391 -24 -14 -5 -56
-7 -95 -4 -38 3 -276 -5 -530 -16 -458 -21 -581 -25 -573 -17 2 2 250 14 552
27 301 13 553 26 559 30 7 5 -3 32 -30 83 l-42 77 50 79 c28 44 50 84 50 90 0
9 -70 201 -75 208 -6 7 -168 -80 -242 -129 -95 -63 -282 -249 -343 -341 -43
-65 -65 -80 -65 -45 0 9 -26 32 -60 52 -129 78 -205 160 -279 305 -83 161
-132 373 -143 618 -5 109 -3 136 8 143 12 7 12 9 0 9 -12 0 -13 23 -8 134 20
419 126 791 363 1285 47 96 82 182 79 190 -3 8 0 18 7 22 8 5 33 -40 85 -154
40 -89 255 -565 476 -1057z m476 -1624 c-2 -2 -202 -11 -444 -20 -617 -24
-683 -26 -656 -20 27 7 1094 52 1100 47 2 -2 2 -5 0 -7z m-164 -57 c-66 -4
-291 -15 -500 -23 -209 -9 -429 -19 -490 -22 -60 -4 -107 -3 -103 1 7 8 964
53 1118 52 l95 0 -120 -8z m-15 -50 c-82 -11 -1121 -51 -1128 -44 -3 3 6 5 19
6 13 0 263 11 554 23 594 26 654 28 555 15z"/>
<path d="M1356 3143 c-16 -76 -36 -212 -52 -343 -19 -158 -26 -632 -11 -814
l8 -99 -46 49 c-39 42 -115 148 -151 209 -9 16 -18 -2 -57 -108 -26 -70 -66
-189 -89 -265 l-41 -137 6 -140 c16 -360 110 -635 273 -799 55 -55 173 -136
199 -136 5 0 23 18 38 40 173 245 428 421 752 521 55 17 89 32 87 40 -5 19
-894 1993 -902 2002 -5 5 -11 -4 -14 -20z"/>
</g>
</svg>
